<?xml version="1.0" encoding="utf-8"?>
<!-- Generator: Adobe Illustrator 16.0.0, SVG Export Plug-In . SVG Version: 6.00 Build 0)  -->
<!DOCTYPE svg PUBLIC "-//W3C//DTD SVG 1.1//EN" "http://www.w3.org/Graphics/SVG/1.1/DTD/svg11.dtd">
<svg version="1.1" id="图层_1" xmlns="http://www.w3.org/2000/svg" xmlns:xlink="http://www.w3.org/1999/xlink" x="0px" y="0px"
	 width="612px" height="792px" viewBox="0 0 612 792" enable-background="new 0 0 612 792" xml:space="preserve">
<rect x="0" y="90" fill="#FFFFFF" width="612" height="612"/>
<path fill="#0062B0" d="M440.8,432.298c-10.597-10.017-39.964-29.825-62.266-66.783c-15.017-24.419-40.571-40.932-67.636-40.383
	c-27.066-0.549-52.625,15.964-67.633,40.383c-22.309,36.958-51.67,56.767-62.271,66.783
	c-13.247,12.513-69.333,42.297-57.115,107.378c12.049,64.224,72.885,67.098,72.885,67.098s28.461,3.032,77.478-8.8
	c13.35-2.934,25.753-3.996,36.656-4.082c10.902,0.086,23.31,1.148,36.653,4.082c49.023,11.832,77.478,8.8,77.478,8.8
	s60.831-2.873,72.884-67.098C510.142,474.594,454.045,444.81,440.8,432.298"/>
<path fill="#0062B0" d="M158.939,394.369c33.375-4.578,45.005-38.604,41.585-71.29c-3.024-28.899-22.444-61.833-54.378-58.938
	c-30.725,2.776-49.696,32.997-49.503,68.503C96.828,366.413,120.272,399.685,158.939,394.369"/>
<path fill="#0062B0" d="M251.975,289.092c32.986-3.13,44.732-36.969,43.944-70.225c-0.862-36.604-20.937-65.974-52.577-64.286
	c-28.14,1.497-50.849,29.768-52.006,67.362C190.129,261.221,215.318,292.565,251.975,289.092"/>
<path fill="#0062B0" d="M462.855,394.369c-33.368-4.578-45.006-38.604-41.586-71.29c3.025-28.899,22.446-61.833,54.381-58.938
	c30.727,2.776,49.694,32.997,49.5,68.503C524.959,366.413,501.526,399.685,462.855,394.369"/>
<path fill="#0062B0" d="M369.822,289.092c-32.994-3.13-44.732-36.969-43.951-70.225c0.866-36.604,20.948-65.974,52.588-64.286
	c28.14,1.497,50.85,29.768,52,67.362C431.665,261.221,406.474,292.565,369.822,289.092"/>
<path fill="#FFFFFF" d="M283.781,534.822h-47.213c-16.053,0-26.293-12.795-26.293-27.214c0-14.348,9.657-27.308,25.503-27.308
	h46.167v-30.6h-45.96c-34.178,0-57.276,25.043-57.276,56.86c0,34.7,21.685,59.043,59.375,59.043h45.699L283.781,534.822
	L283.781,534.822z"/>
<path fill="#FFFFFF" d="M319.171,448.718L319.171,448.718h30.76v71.648c0,11.259,4.472,14.517,10.325,14.517h31.845l-0.028-86.164
	h30.892v116.888h-65.236c-26.505,0-38.556-14.279-38.556-35.287L319.171,448.718L319.171,448.718z"/>
<polygon fill="#FFFFFF" points="294.805,565.606 294.805,400.452 263.018,400.452 262.988,565.606 "/>
</svg>
